Coordinates
version=1
nRows=16
nColumns=40
inDegrees=yes

Units are S.I. units (second, meters, Newtons, ...)
Angles are in degrees.

endheader
time	pelvis_tilt	pelvis_list	pelvis_rotation	pelvis_tx	pelvis_ty	pelvis_tz	hip_flexion_r	hip_adduction_r	hip_rotation_r	knee_angle_r	knee_angle_r_beta	ankle_angle_r	subtalar_angle_r	mtp_angle_r	hip_flexion_l	hip_adduction_l	hip_rotation_l	knee_angle_l	knee_angle_l_beta	ankle_angle_l	subtalar_angle_l	mtp_angle_l	lumbar_extension	lumbar_bending	lumbar_rotation	arm_flex_r	arm_add_r	arm_rot_r	elbow_flex_r	pro_sup_r	wrist_flex_r	wrist_dev_r	arm_flex_l	arm_add_l	arm_rot_l	elbow_flex_l	pro_sup_l	wrist_flex_l	wrist_dev_l
      2.34342857	     -4.20401003	     -4.42689728	     -2.87355304	      1.07229147	      0.92509995	      0.43939960	     24.31669453	     -1.67465710	    -13.10765809	     10.41509043	     10.41509043	      0.27039740	     11.22930812	      6.16700084	      2.59306680	     -5.75532076	    -12.62115851	     15.78414012	     15.78414012	     17.16951064	     -6.96077413	     -5.51538773	    -11.32736845	      3.25407227	      0.02633952	    -10.75869072	    -14.56341427	    -15.47778555	     25.23672814	     47.73845996	      0.00000000	      0.00000000	     15.94538691	    -16.77297334	     -5.14322871	     70.50148072	     46.75676248	      0.00000000	      0.00000000
      2.35685714	     -3.92987389	     -4.33918770	     -2.79883258	      1.07421779	      0.92447337	      0.44170068	     23.84561697	     -1.57689950	    -13.12602226	     11.14479096	     11.14479096	      0.43637555	     10.99952487	      5.24603352	      1.59331981	     -5.78388844	    -12.84796824	     15.45639318	     15.45639318	     17.57183661	     -6.35554785	     -5.36828687	    -11.40354223	      3.18552086	      0.10678613	    -10.73145972	    -14.16543897	    -15.60815911	     25.42463591	     47.72376173	      0.00000000	      0.00000000	     16.15000129	    -16.54891542	     -5.12944159	     70.67642536	     46.77530502	      0.00000000	      0.00000000
      2.37028571	     -3.77835153	     -4.27313557	     -2.69655219	      1.07621061	      0.92363549	      0.44411361	     23.53884214	     -1.46414516	    -12.91641625	     12.06950938	     12.06950938	      0.54081248	     10.42246736	      4.04877931	      0.85605734	     -5.88573933	    -13.01886204	     15.38444085	     15.38444085	     18.03719508	     -5.84933495	     -5.17544135	    -11.31356105	      3.16461497	      0.10039917	    -10.62029818	    -13.84988539	    -15.69755294	     25.74317334	     47.70092891	      0.00000000	      0.00000000	     16.18513149	    -16.36760176	     -5.13086215	     70.76186050	     46.79171376	      0.00000000	      0.00000000
      2.38371429	     -3.69024420	     -4.34047600	     -2.54708426	      1.07835606	      0.92290255	      0.44656997	     23.11516118	     -1.22169714	    -12.83589762	     12.73593209	     12.73593209	      0.73299182	     10.09456940	      3.60196553	      0.23488716	     -6.12948906	    -12.93132276	     15.39154371	     15.39154371	     18.36678556	     -5.74761677	     -5.16037893	    -11.12000622	      3.31415698	      0.07920201	    -10.33717278	    -13.41129607	    -15.65124290	     25.92890105	     47.68629880	      0.00000000	      0.00000000	     16.02867440	    -16.03128048	     -5.02560971	     70.74395714	     46.78606683	      0.00000000	      0.00000000
      2.39714286	     -3.46527080	     -4.19955306	     -2.47534012	      1.08063501	      0.92215621	      0.44933481	     22.84791341	     -1.05384687	    -11.57922521	     13.77913325	     13.77913325	     -0.45766092	      7.66840792	     -1.59550955	     -0.39529524	     -6.33113839	    -13.71798692	     15.85143076	     15.85143076	     19.81645862	     -4.02977849	     -3.13289943	    -11.15025936	      3.21222139	      0.10772455	    -10.48928416	    -13.22039054	    -15.41924559	     27.50221659	     47.51132887	      0.00000000	      0.00000000	     15.77348403	    -15.75619485	     -5.49672794	     71.00164080	     46.89307141	      0.00000000	      0.00000000
      2.41057143	     -3.28418929	     -4.10106031	     -2.38292580	      1.08292439	      0.92169450	      0.45188029	     22.71297882	     -1.02479988	    -11.05194657	     15.10445538	     15.10445538	     -0.01555291	      6.72907070	     -2.33085157	     -1.09338845	     -6.40359670	    -13.70911901	     15.91660584	     15.91660584	     20.10298433	     -3.90555522	     -2.82913910	    -11.09042389	      3.19233421	      0.15324779	    -10.05465504	    -13.01370281	    -15.17301463	     27.80639555	     47.46301134	      0.00000000	      0.00000000	     15.52776455	    -15.51299797	     -5.44053274	     70.80744764	     46.90018253	      0.00000000	      0.00000000
      2.42400000	     -3.11876079	     -4.03704746	     -2.29094563	      1.08518141	      0.92140376	      0.45453468	     22.60357715	     -0.91114734	    -10.28155744	     16.36489413	     16.36489413	      0.45782042	      5.38779038	     -2.98329209	     -1.63106305	     -6.57129031	    -13.72072544	     16.25365371	     16.25365371	     20.40646756	     -3.79461633	     -2.46524338	    -11.05732049	      3.22716868	      0.20837554	     -9.55037489	    -12.83739244	    -14.84974686	     28.27260571	     47.40387666	      0.00000000	      0.00000000	     15.17265865	    -15.23500786	     -5.49449317	     70.55951862	     46.91198385	      0.00000000	      0.00000000
      2.43742857	     -2.87620091	     -4.07554423	     -2.17404485	      1.08744232	      0.92148198	      0.45724820	     22.31346427	     -0.71148755	     -9.75636865	     17.40806652	     17.40806652	      1.00950943	      4.38608709	     -3.44242255	     -2.12349104	     -6.88759158	    -13.66222789	     16.82204532	     16.82204532	     20.59428444	     -3.86798864	     -2.25238724	    -11.13635307	      3.37234173	      0.30338915	     -8.95807212	    -12.76155694	    -14.60325856	     28.71831140	     47.36071104	      0.00000000	      0.00000000	     14.78385294	    -14.93358920	     -5.51695797	     70.27521571	     46.91429601	      0.00000000	      0.00000000
      2.45085714	     -2.78900088	     -4.10444850	     -2.06125750	      1.08949716	      0.92157256	      0.46015480	     22.13749389	     -0.39887468	     -8.80516255	     18.22378623	     18.22378623	      1.33999639	      2.60546808	     -4.29986895	     -2.09993356	     -7.36513259	    -13.82537764	     18.11522470	     18.11522470	     21.63082890	     -3.33286240	     -0.21104991	    -11.06767528	      3.51688959	      0.22487836	     -8.82534470	    -13.13188299	    -10.98587482	     30.76991817	     46.87127570	      0.00000000	      0.00000000	     14.15563139	    -14.42081897	     -6.27237796	     69.78381655	     47.06680919	      0.00000000	      0.00000000
      2.46428571	     -2.68243405	     -4.14823804	     -1.89386898	      1.09137086	      0.92190724	      0.46298835	     21.91551772	     -0.16449332	     -8.32060371	     18.99092400	     18.99092400	      2.00520615	      1.57752243	     -4.43633342	     -2.01581578	     -7.80823047	    -13.55479211	     19.36689942	     19.36689942	     21.47845028	     -3.79279901	     -0.48355435	    -11.04483932	      3.68061022	      0.25845905	     -8.00114092	    -13.07086847	    -10.71925999	     31.27524455	     46.82442636	      0.00000000	      0.00000000	     13.60360516	    -14.12647453	     -6.24246410	     69.20952613	     47.06388457	      0.00000000	      0.00000000
      2.47771429	     -2.50407418	     -4.24792819	     -1.66237982	      1.09305292	      0.92255875	      0.46586668	     21.48952987	      0.09738111	     -8.11344524	     19.50197068	     19.50197068	      2.66696999	      0.90526921	     -4.59612441	     -1.76824765	     -8.37383568	    -13.15208362	     21.00618185	     21.00618185	     21.22864211	     -4.37067374	     -0.79941283	    -11.15874434	      3.90406368	      0.32623607	     -7.11406212	    -13.03700121	    -10.53381022	     31.83910968	     46.78792195	      0.00000000	      0.00000000	     13.10085932	    -13.83284309	     -6.22270310	     68.60526371	     47.05573585	      0.00000000	      0.00000000
      2.49114286	     -2.52628297	     -4.34773848	     -1.37508066	      1.09438650	      0.92307270	      0.46881914	     21.19868254	      0.40532371	     -7.84576486	     19.79690334	     19.79690334	      3.24219021	      0.00285072	     -4.56988866	     -0.95815356	     -9.02987060	    -12.61734772	     23.17442207	     23.17442207	     20.71064317	     -5.16614524	     -1.50182245	    -11.01851928	      4.12192054	      0.23095757	     -6.25279845	    -13.03083944	    -10.08485183	     32.79155717	     46.70998223	      0.00000000	      0.00000000	     12.53244639	    -13.44834893	     -6.38301413	     67.49191645	     47.05856921	      0.00000000	      0.00000000
      2.50457143	     -2.45399375	     -4.48085431	     -1.04397128	      1.09542197	      0.92383597	      0.47177243	     20.72230870	      0.71749306	     -7.80199127	     19.91244483	     19.91244483	      3.78108420	     -0.55764843	     -4.51365694	     -0.04488343	     -9.71828163	    -11.84654544	     25.57325064	     25.57325064	     19.52931013	     -6.42227166	     -3.22725704	    -11.05536823	      4.39647977	      0.32719441	     -5.61224072	    -13.25293312	     -8.88141981	     34.46975228	     46.53285632	      0.00000000	      0.00000000	     12.30867458	    -12.87313086	     -6.79198425	     65.83304848	     47.09053580	      0.00000000	      0.00000000
      2.51800000	     -2.39498830	     -4.63782928	     -0.59704528	      1.09624102	      0.92456812	      0.47464860	     20.15403818	      0.99013484	     -8.14707828	     19.83028094	     19.83028094	      4.26140314	     -0.70326282	     -4.75660323	      1.17486292	    -10.43515794	    -10.76763842	     28.33505293	     28.33505293	     17.78480633	     -8.12514713	     -5.81975009	    -11.08445049	      4.66966335	      0.39124126	     -5.05749625	    -13.57840313	     -7.45670473	     36.19690258	     46.32934494	      0.00000000	      0.00000000	     12.00136567	    -12.47192029	     -6.74083228	     64.36683960	     47.10533022	      0.00000000	      0.00000000
      2.53142857	     -2.41718679	     -4.80572344	     -0.11274596	      1.09672643	      0.92521339	      0.47756651	     19.61928257	      1.28273997	     -8.55920648	     19.60041315	     19.60041315	      4.65674007	     -0.76048387	     -4.89748512	      2.88216308	    -11.23254741	     -9.65564783	     31.78121723	     31.78121723	     16.56151581	     -9.38775763	     -6.53909411	    -11.04008419	      4.95710215	      0.22016628	     -3.88569492	    -13.59927812	     -7.38480276	     36.97254990	     46.29544364	      0.00000000	      0.00000000	     11.31724831	    -12.28668120	     -6.58275846	     63.37985239	     47.07991953	      0.00000000	      0.00000000
      2.54485714	     -2.17412151	     -4.96618224	      0.34215664	      1.09707628	      0.92613909	      0.48057071	     18.81682459	      1.59227582	     -8.95991027	     19.40104695	     19.40104695	      5.07600924	     -0.74905087	     -5.03964110	      4.43030298	    -11.99147483	     -8.54202194	     35.37128359	     35.37128359	     15.11091276	    -10.58676895	     -7.06696722	    -11.37051004	      5.12818543	      0.31611097	     -2.62191003	    -13.66760094	     -7.34852576	     37.68975791	     46.27074252	      0.00000000	      0.00000000	     10.93071674	    -12.04452235	     -6.46423812	     62.58198183	     47.05887161	      0.00000000	      0.00000000
